<?xml version="1.0" encoding="UTF-8"?>
<svg version="1.1" viewBox="0 0 1024 1024" width="1280" height="1280" xmlns="http://www.w3.org/2000/svg">
<path transform="translate(0)" d="m0 0h1024v1024h-1024z"/>
<path transform="translate(525,212)" d="m0 0h1v44l2 26 5 24 8 24 13 28 11 21 8 13 12 20 9 16 8 20 4 16 1 8v20l-3 15-5 13-9 14-11 12-9 8-11 9-6 5-5 1 3-5 9-11 6-3 10-12h2l1-5 2-1v-7l-3 3h-4l-1-4-4 2-1 2h-2v3l-8 5h-5l4-7 3-4h2l2-5 5-10 4-12v-25l-5-15-4-7 3 14 3 13v12l-2 11-4 11-3 1v-5h-5l-4-1-3 1-13 1h-32l-7 1-4 8-5-3-3-3 2 3v7l-3 2-3-3-4-13-1-1v-16l4-18 7-11 5-6 5-3 11-11 4-3h2v-2l9-7 8-11 2-5v-12l-4-11-9-14-10-14v-2l-3 3-8 16-10 16-8 11-10 14-9 14-9 21-3 16v12l2 15 5 13 7 13 8 10 9 10 10 7 14 7-4 1-16-8-8-6-5-4-6-7-5-5-7-10-8-15-4-6-2-6-5-5-3-4h-6l-3 2v10l4 13-1 4-2-1-4-12-2-8v-28l6-24 9-21 15-28 10-19 12-25 10-24 16-47 9-25 11-24 5-10z" fill="#FDFC01"/>
<path transform="translate(515,223)" d="m0 0 3 1-11 25-9 24-12 36-10 27-12 26-14 28-10 18-8 16-5 11-5 16-3 13v28l4 14 2 6 1-3-4-13v-10l2-2 4-1h5l5 8 3 2 4 9 4 6 6 12 7 10 2 4 3 1 5 5v2l4 2 6 5 14 8 5 2h3l-16-8-10-8-10-11-9-14-6-13-3-12-1-9v-12l3-16 7-16 6-12 13-18 7-10 10-15 8-14 5-10h2l11 16 7 10 4 8 2 7v12l-5 10-7 8-6 5h-2v2l-9 7-10 10-4 2-9 13-3 11-2 9v16l3 7 1 7 4 2 1-1v-7l-1-3 3 1v2l4 2 5-8 7-1h32l13-1 6-1 6 2 1 4h2l2-9 2-6 1-7v-12l-4-17-2-8 1-4 7 14 3 10v25l-6 17-6 10h-2l-2 4-4 6 5-1 5-3h2v-3h2l2-4h3l1 4 5-2 3-2v8l-3 1-1 5-5 5-8 9-5 1-2 4-9 11h3l-2 4-9 13-6 11-6 13-6 23-5 19-3 6-3 1-4-3-4-13-7-28-4-11-8-16-6-9v-2h-2l-7-8-7-7-12-9-9-8v-2h-2l-11-14-6-11-5-13-3-24-1-10 2-16 7-23 9-20 10-19 5-10 11-23 5-11 8-20 3-7 3-12 14-42 8-16 2-7 9-15z" fill="#FC0101"/>
<path transform="translate(384,734)" d="m0 0h8l6 5v3l9-6 6-2h14l9 3 7 5v2l4 2 6 9 4 14v10l-3 12-5 9-8 8-11 6-5 1h-9l-10-4-6-5v-2h-2v36l-5 6-2 1h-7l-5-3-3-5-1-29v-63l1-7 6-5z" fill="#FDFEFD"/>
<path transform="translate(508,361)" d="m0 0h2l11 16 7 10 4 8 2 7v12l-5 10-7 8-6 5h-2v2l-9 7-10 10-4 2-9 13-3 11-2 9v16l3 7 2 7v7l-5 10-4-1-8-9-8-14-5-12-2-9-1-9v-12l3-16 7-16 6-12 13-18 7-10 10-15 8-14z"/>
<path transform="translate(310,702)" d="m0 0h10l13 3 11 5v2l4 1 6 7v9l-6 5-8 1-11-6-10-4h-9l-11 3-2 4-1 6 3 6 11 4 24 4 12 6 8 8 4 10v13l-4 10-5 6-11 7-10 3h-23l-15-5-10-7-5-6v-7l4-6 3-1h7l12 7 9 3 8 1 11-3 5-2 1-3v-7l-4-4-3-2-22-3-13-4-8-5-7-7-4-9v-16l6-12 9-8 8-4z" fill="#FDFEFD"/>
<path transform="translate(584,245)" d="m0 0h8l16 7 21 11 11 7 12 9 14 12 6 5 7 8 10 12 14 21 7 14 7 15 1 2v8l-2 4h-2v2l-7 3h-7l-5-2-6-7-5-12-9-17-10-14-8-10-3-3v-2l-4-2-11-11-11-8-16-10-10-6-20-9-5-5-2-5v-8l4-6z" fill="#FDFE01"/>
<path transform="translate(433,245)" d="m0 0h8l6 4 3 5v10l-6 7-4 1v2l-7 3-6 3h-4v2l-5 1v2l-8 5-14 10-5 4-5 5-9 6-10 11-6 8-14 21-11 23-4 5h-6l-5-7-1-3-3-3-1-3-2-1-1 4h-3l2-11 8-17 10-17 2-3h2l2-5 2-3h2l2-4 9-11 15-15 13-10 5-2v-2l20-12 21-10z" fill="#FDF801"/>
<path transform="translate(496,733)" d="m0 0h23l10 3 9 6 6 9 2 5v52l-3 5-4 2h-8l-7-6v-2l-12 7-4 1h-15l-10-4-9-9-3-8v-13l4-8 9-8 7-3 5-1h27l-3-5-4-1h-15l-8 2h-10l-3-1v-2h-2l-1-2v-8l1-3 7-5z" fill="#FDFEFD"/>
<path transform="translate(675,703)" d="m0 0 9 1 5 5v59h2v-2l8-6 3-3h2l2-4 3-1v-9l3-6 5-3h9l6 4 1 3v15l-5 7-6 5 1 5 9 13 9 15 2 3v5l-5 5-2 1h-8l-6-4-6-7-11-17-2-3-5 2-7 6-1 2v10l-2 7-6 4h-7l-5-3-3-4v-98l4-5z" fill="#FDFEFB"/>
<path transform="translate(575,734)" d="m0 0h9l4 2 3 5 1 17 9-11 8-9 10-4h24l5 3 3 5v6l-4 6-3 2-28 1-12 14-12 12-1 23-2 5-3 3-3 1h-7l-6-4-2-7v-59l2-7z" fill="#FDFEFD"/>
<path transform="translate(774,703)" d="m0 0h8l7 6 1 2-1 9-13 24-6 16-6 11-8 16-9 17-4 2-10-17-4-7 8-16 12-23 2-4h2l3-9 10-21 6-5z" fill="#FC0101"/>
<path transform="translate(268,437)" d="m0 0h81l6 3 4 6v8l-5 6-3 2h-87l-5-4-2-5v-8l3-5 3-2z" fill="#FC0101"/>
<path transform="translate(680,436)" d="m0 0h72l10 3 4 5 1 2v6l-5 8-10 2h-72l-8-2-5-5-1-9 3-5 3-3z" fill="#FDFE08"/>
<path transform="translate(525,228)" d="m0 0 3 4 4 20 4 36 2 6 2 12 3 8 2 9 5 10 5 13 5 11 5 8 6 11 13 23 8 14 9 20 6 21 1 5v27h-1l-2-22-6-22-8-18-11-19-8-13-12-20-8-16-9-20-5-11-6-19-5-24-2-26z" fill="#FC0101"/>
<path transform="translate(416,731)" d="m0 0h10l10 2 8 6 7 8 6 8 3 8 1 6v16l-4 13-4 6-5 5-9 7-5 3-7 2h-11l-13-3v16l-3 7h-2l-2 4-5 4h-7l-5-1-5-5-2-4-1-7-1-18v-46l2-23 4-7 1 2-1 7v69l1 23 3 5 4 2h7l5-4 1-2 1-36h2l5 5 7 4 4 1h9l9-3 9-6 7-8 4-9 2-9v-10l-5-16-6-8-9-7-12-4-8-1z" fill="#0306B7"/>
<path transform="translate(508,361)" d="m0 0h2l11 16 7 10 4 8 2 7v12l-5 10-7 8-6 5h-2v2l-9 7-10 10h-2l2-4 8-8 8-7 7-8 5-6 2-6-1-9-5-10-5-5-8-1-11 7-3 6-12 11-5 8-5 5-3 1-4 7h-2l2-5 7-11 13-18 12-18 8-14z" fill="#FC0101"/>
<path transform="translate(244,365)" d="m0 0 23 1 5 3v9l-3 2h-50l-40-1-17-3-2-2 9-3h9l10-2h3v-2l2-1z" fill="#0407BA"/>
<path transform="translate(774,703)" d="m0 0h8l7 6 1 2-1 9-13 24-5 8h-3l-1 4h-3l-2-3-10-1-3-1 1-7 8-18 8-17 6-5z" fill="#FEFE01"/>
<path transform="translate(413,754)" d="m0 0h8l6 3 5 5 3 8v9l-4 8-5 4-9 3-8-2-8-6-3-6v-13l4-7 5-4z"/>
<path transform="translate(573,733)" d="m0 0h15l4 3 4 10 5 1-3 5-5 6-2 2-1-19-2-5-4-1h-9l-5 5-1 5v59l2 7 5 3h7l5-3 2-5 1-23 16-16 8-10 1-1 28-1 5-5 1-2-1-9-5-5 3-1 5 4 3 8-1 7-5 6-5 3-8 1h-14l-6 3-9 10-5 6-5 5-1 22-4 6-6 5-2 1h-9l-7-4-4-8v-58l3-11 1-3z" fill="#0306B9"/>
<path transform="translate(525,212)" d="m0 0h1v44l1 31-3-3-3-12-2-6-8 5-1 5-6 2-7 9-4 8-1-3 2-10 8-23 11-26 8-16z" fill="#FDFED7"/>
<path transform="translate(502,730)" d="m0 0h18l12 4 7 5v2l3 1 5 6 4 14 1 16v17l-1 13-4 7-7 5h-9l-7-4-5 1-6 3-7 1h-10l-9-2-10-7-8-10-2-7 1-15 3-6 4-2-3 9v13l4 9 7 7 10 4h15l10-4 4-3h2l4 5 3 2h8l4-2 2-4v-52l-7-14-14-7-5-1-23-1 2-2z" fill="#0306B7"/>
<path transform="translate(219,312)" d="m0 0h52l15 1 4 4-1 4-1 2-3 1h-70l-5-5 2-5z" fill="#FC0101"/>
<path transform="translate(268,437)" d="m0 0h81l6 3 4 6v8l-5 6-2 1h-51l-11-1v-2l46-3 9-1 2-7-11-2v-2l-16-1-55-2z" fill="#FEFE01"/>
<path transform="translate(752,559)" d="m0 0h58l5 3 1 4-4 4h-66l-3-3 1-6z" fill="#FC0101"/>
<path transform="translate(655,158)" d="m0 0h7l7 3 5 8v7l-4 9-7 4h-9l-8-5-3-6v-8l4-8 5-3z" fill="#0306B9"/>
<path transform="translate(595,244)" d="m0 0 10 2 18 8 8 4 12 8 11 8 10 8 17 17 11 14 11 17 7 14 4 12-1 4-4-9-10-19-12-17-12-14-3-3v-2l-4-2-12-11-13-10-16-10-23-12-12-5z" fill="#FC0101"/>
<path transform="translate(351,760)" d="m0 0 6 5 4 6 2 8v9l-3 10-5 8-4 5-14 8-14 3-19-1-9-3-11-6-9-8-3-7v-6l2-3h2v9l6 7 10 6 13 4h23l12-4 11-8 5-9 1-4v-13l-4-10-3-3z" fill="#0306B9"/>
<path transform="translate(665,712)" d="m0 0h1l1 81 1 15 4 5 3 1h7l5-3 2-7v-10l5-5 7-6 3 1 16 24 6 5 2 1h8l5-2-1 4-8 3h-6l-8-5-8-11-5-8v-2h-5l-4 5-3 13-4 5-6 3h-10l-6-4-3-7-1-13 1-82z" fill="#0306B9"/>
<path transform="translate(430,244)" d="m0 0 3 1-3 2-18 8-15 8-11 7h-2v2l-10 7-11 9-14 14-9 12h-2l-2 5-2 3h-2l-2 5-10 17-7 15-3 11h3l1-4 3 1 1 5 3 1 5 9 4 2-5 2h-7l-6-3-5-6v-9l6-19 6-10 4-7 10-14 8-10 9-10 12-12 11-12 4-4 19-11 3-3 6-3 6-2 10-5z" fill="#FC0101"/>
<path transform="translate(274,726)" d="m0 0 1 3v16l5 10 7 7 11 5 14 3 16 2 7 5 1 2v7l-5 5-8 3-8 1-11-3-10-5-5-3-7-1v-1l11-1 10 5 13 4 9-1 4-2 1-7-6-3-20-3-16-5-9-7-6-8-3-8v-13l2-6z" fill="#0306B9"/>
<path transform="translate(190,423)" d="m0 0 7 1 8 4 3 5v7l-4 7-7 4-9-1-6-5-2-4v-9l4-6z" fill="#FC0A01"/>
<path transform="translate(318,700)" d="m0 0 11 2 8 2v2l7 1 8 6 4 5 1 3v8l-6 8-3 1h-9l-12-5-7-3h-11l-5 3-1 7 5 5 13 3 9 1 11 3v2l5 1 3 5-5-2-10-5-24-4-11-4-4-7 1-6 5-5 9-3h9l10 4 11 6 8-1 5-4v-9l-6-7-3-1v-2l-9-3-10-3-15-2v-1z" fill="#0306B5"/>
<path transform="translate(630,789)" d="m0 0h7l6 3 3 3 1 3v8l-3 5-6 4h-8l-6-4-3-4-1-8 4-7z" fill="#FDFEFD"/>
<path transform="translate(749,289)" d="m0 0h36l10 1 3 3-1 5-3 2h-47l-2-2v-6z" fill="#0407BA"/>
<path transform="translate(698,517)" d="m0 0h10l6 3v2h2l-1 3-5-4h-12l-3 1-3 9-5 9-6 9-8 11-13 15-9 9-8 7-11 9-11 7-9 5-22 11-6 1 4-4 13-5 10-5h2v-2l16-10 9-7h2v-2l11-9 8-9 4-5h2l2-6 6-9 10-17 7-12z" fill="#FC0101"/>
<path transform="translate(324,190)" d="m0 0h17l6 2 2 3-1 7-4 3h-17l-13-1-4-4 1-5 3-3z" fill="#0407BA"/>
<path transform="translate(619,348)" d="m0 0 7 1 5 3 2 5v10l-4 5-4 2h-8l-7-6-1-9 3-7 4-3z" fill="#FC0101"/>
<path transform="translate(236,498)" d="m0 0 9 1 5 4 2 4v6l-4 6-4 3h-10l-6-5-2-5 1-8 5-5z" fill="#FC0101"/>
<path transform="translate(592,276)" d="m0 0 6 2 21 12 12 8 11 9 15 15 7 8 10 14 8 14 6 12-1 3-6-11-11-16-6-8v-2h-2l-9-11-4-4v-2l-3-1-6-7-6-4-13-10-16-10-10-6z" fill="#FC0101"/>
<path transform="translate(511,151)" d="m0 0 9 2 4 5 1 9-4 6-4 3h-8l-6-4-2-3-1-9 4-6z" fill="#FDFE03"/>
<path transform="translate(413,754)" d="m0 0h8l6 3 5 5 3 8v9l-4 8-5 4-9 3-8-2-8-6-3-6v-13l4-7 5-4zm2 6-8 4-4 6-1 5 2 7 4 5 7 4 7-1 7-4 3-6v-10l-4-6-6-4z" fill="#0306B5"/>
<path transform="translate(252,553)" d="m0 0h10l6 5 1 2v8l-3 5-3 3-7 1-6-2-5-6v-9l5-6z" fill="#FC0101"/>
<path transform="translate(317,517)" d="m0 0h11l8 5 8 14 9 16 10 13 9 11 9 9 3 2v2l4 2 13 10 23 14-3 1-12-7-7-4-13-9-14-12-14-14-4-5v-2h-2l-11-16-9-19-3-5-1-2-3-1h-10l-6 4-2-1 3-4z" fill="#FC0801"/>
<path transform="translate(763,378)" d="m0 0h37l2 2-1 7-4 2h-35l-2-2v-7z" fill="#0407BA"/>
<path transform="translate(584,245)" d="m0 0h8l16 7 21 11 11 7 12 9 8 7 7 8-2 1-3-2v-2l-5-2v-2l-4-2-11-8-10-6-8-5-18-9-9-4-9-3-7 1-3 2-1-3 5-4z" fill="#FDFEBD"/>
<path transform="translate(588,169)" d="m0 0h21l6 3 1 1-1 7-3 2-11 1h-10l-7-3-1-6z" fill="#0407BA"/>
<path transform="translate(743,234)" d="m0 0h6l7 6 1 7-3 6-4 3h-9l-6-7v-8l5-6z" fill="#FDE90A"/>
<path transform="translate(498,781)" d="m0 0h26l-1 6-5 5-9 4-9-1-6-4-2-2v-5l2-2z" fill="#0407BA"/>
<path transform="translate(489,733)" d="m0 0h7v1l-11 3-5 4h-2v13h2v2h13l8-2h15l5 2 2 5-27 1-10 3-3 1-2-6-4-4-3-6v-6l2-5 7-4z" fill="#0306B5"/>
<path transform="translate(278,628)" d="m0 0 9 1 5 5v8l-4 5-2 1-10-1-4-5v-8l5-5z" fill="#FC0202"/>
<path transform="translate(760,510)" d="m0 0 6 1 5 6v6l-3 5-5 3-6-1-5-4-1-9 4-5z" fill="#0306AE"/>
<path transform="translate(433,245)" d="m0 0h8l4 3-1 1-13 2-11 5-21 10-22 14-2-1 5-4 2-3h2v-2l20-12 21-10z" fill="#FDFEBA"/>
<path transform="translate(639,789)" d="m0 0 7 2 4 4 1 2v12l-4 6-5 4h-13l-6-3-4-5-2-5v-6l4-5v9l3 6 6 4h8l6-4 2-4v-8l-3-5z" fill="#0306B8"/>
<path transform="translate(688,707)" d="m0 0 4 2 1 3 1 41 1 11-4 2v2h-2z" fill="#0306B8"/>
<path transform="translate(619,348)" d="m0 0 7 1 5 3 2 5v7l-1 2-3-1-2-6-5-2-5 1-1 4 2 4-3 2-5-5-1-4 3-7 4-3z" fill="#FDFE02"/>
<path transform="translate(743,143)" d="m0 0h8l4 4v6l-4 5-7 1-5-3-1-2v-7l2-3z" fill="#0407BA"/>
<path transform="translate(730,736)" d="m0 0 4 1 3 7v14l-4 6-4 5 1 13h-2l-7-11 1-4 4-4h2l2-4 2-3v-15z" fill="#0306B6"/>
<path transform="translate(420,188)" d="m0 0h7l4 4v6l-5 5-6 1-5-4-1-8h2v-2z" fill="#0407BA"/>
<path transform="translate(716,261)" d="m0 0h7l4 5-1 7-5 2h-7l-3-3v-8z" fill="#FDFE06"/>
<path transform="translate(810,320)" d="m0 0h16l3 3-1 5-2 2h-12l-6-3v-5z" fill="#0407BA"/>
<path transform="translate(804,178)" d="m0 0h5l5 5-1 7-3 2h-7l-3-3v-7z" fill="#0407BA"/>
<path transform="translate(573,733)" d="m0 0h15l4 3 4 10 5 1-3 5-5 6-2 2-1-19-2-5-4-1h-9l-6 5-1-4z" fill="#0306B2"/>
<path transform="translate(303,261)" d="m0 0h6l4 3 1 5-4 4-3 1-6-3-3-5z" fill="#FEFE01"/>
<path transform="translate(320,115)" d="m0 0 5 1 3 3 1 5-3 4h-8l-3-4 1-6z" fill="#0407BA"/>
<path transform="translate(492,456)" d="m0 0v3l-8 13-3 8-2 11 1 15 1 12-2-4-3-7v-16l4-18 7-11z" fill="#FC0101"/>
<path transform="translate(805,417)" d="m0 0h8l2 2v6l-3 3h-6l-3-3v-6z" fill="#0407BA"/>
<path transform="translate(463,160)" d="m0 0 7 1 2 2v6l-3 3-7-1-2-4 1-5z" fill="#0407BA"/>
<path transform="translate(297,266)" d="m0 0 7 6 4 1 4-1 1-3h1v6l-5 4h-6l-5-3-2-4z" fill="#FC0101"/>
<path transform="translate(190,431)" d="m0 0h6l4 4-1 5-2 2h-7l-2-2v-7z"/>
<path transform="translate(657,159)" d="m0 0 8 1 5 5v3l-4-1-3-2h-9l-5 4h-3l2-5 5-4z" fill="#FDFEFD"/>
<path transform="translate(770,333)" d="m0 0h5l3 3v5l-2 2h-6l-3-2v-6z" fill="#FEFE01"/>
<path transform="translate(662,224)" d="m0 0h6l2 2v7l-3 2-5-1-2-7z" fill="#FDFE0F"/>
<path transform="translate(885,178)" d="m0 0 6 1 2 2-1 5-2 2h-5l-3-3v-5z" fill="#0407BA"/>
<path transform="translate(700,208)" d="m0 0 4 1 3 3-2 5-2 2-5-1-2-3 1-4z" fill="#0407BA"/>
<path transform="translate(728,582)" d="m0 0 5 2 1 1v6l-1 1h-6l-3-3 1-5z" fill="#FC0101"/>
<path transform="translate(631,197)" d="m0 0 6 1 2 4-3 4h-6l-3-4 2-4z" fill="#FDFE11"/>
<path transform="translate(410,287)" d="m0 0 2 1-9 7-8 6-5 5-9 6-2-1 3-3h2v-2l13-10z" fill="#FC0101"/>
<path transform="translate(441,128)" d="m0 0 5 1 2 2v5l-2 2h-5l-3-3 1-5z" fill="#0407BA"/>
<path transform="translate(280,234)" d="m0 0 5 2 1 1v6l-2 2-4-1-3-2v-6z" fill="#FDFE14"/>
<path transform="translate(712,627)" d="m0 0 5 1 1 1v6l-3 2-5-1-1-1v-6z" fill="#FC0101"/>
<path transform="translate(807,516)" d="m0 0 5 1 2 2-1 6-6 1-2-2v-6z" fill="#FC0101"/>
<path transform="translate(677,656)" d="m0 0h8l1 6-2 2h-6l-2-2v-5z" fill="#FC0101"/>
<path transform="translate(656,169)" d="m0 0h5l2 2v5l-2 2h-5l-3-4 2-4z"/>
<path transform="translate(348,642)" d="m0 0 5 1 2 5-2 3-6-1-2-2 1-5z" fill="#FC1001"/>
<path transform="translate(511,151)" d="m0 0 9 2 4 5-2 2-6-4h-10l-4 2 2-4z" fill="#FDFEDE"/>
<path transform="translate(322,748)" d="m0 0 8 1 11 3v2l5 1 3 5-5-2-10-5-12-2z" fill="#0306B4"/>
<path transform="translate(392,204)" d="m0 0h5l2 2v5l-2 2h-5l-2-5z" fill="#FC0101"/>
<path transform="translate(627,202)" d="m0 0 3 3h6l3-3 1 5-4 4-7-1-2-2z" fill="#FC0101"/>
<path transform="translate(698,517)" d="m0 0h10l6 3v2h2l-1 3-5-4h-12l-4 1-2-1z" fill="#FD8101"/>
<path transform="translate(128,559)" d="m0 0 5 1 1 1v6l-1 1h-5l-2-2v-5z" fill="#FC0101"/>
<path transform="translate(162,169)" d="m0 0 4 2 1 4-4 3-5-1-1-3z" fill="#FDFE05"/>
<path transform="translate(967,398)" d="m0 0 4 1 1 6-2 2h-5l-1-1v-6z" fill="#FC0101"/>
<path transform="translate(828,438)" d="m0 0 6 1 1 5-2 2h-5l-2-5z" fill="#FC0101"/>
<path transform="translate(510,160)" d="m0 0h5l1 1v6l-1 1h-5l-2-2v-5z" fill="#420000"/>
<path transform="translate(392,732)" d="m0 0 4 1v2l6 1 6-2-1 3-7 5h-2l-3-5-6-3z" fill="#0306AF"/>
<path transform="translate(613,609)" d="m0 0 1 2-24 12-6 1 4-4 13-5z" fill="#FDBC01"/>
<path transform="translate(410,168)" d="m0 0h5l1 1v5l-2 2-5-1-1-5z" fill="#0407BA"/>
<path transform="translate(349,219)" d="m0 0h6l1 6-2 2-5-1-1-5z" fill="#0407BA"/>
<path transform="translate(500,787)" d="m0 0h9l4 1-1 3-2 1h-6l-4-2z"/>
<path transform="translate(317,517)" d="m0 0h11l6 4h-3l-3-1h-10l-6 4-2-1 3-4z" fill="#FDB201"/>
<path transform="translate(238,506)" d="m0 0 4 1 1 5-2 2-5-1-1-4z"/>
<path transform="translate(789,480)" d="m0 0h7v5l-2 2-5-1-1-5z" fill="#0407BA"/>
<path transform="translate(944,741)" d="m0 0 4 2v5l-5 1-2-2 1-5z" fill="#FC0101"/>
<path transform="translate(685,245)" d="m0 0 5 1 1 3-2 3h-5l-1-5z" fill="#FC3412"/>
<path transform="translate(247,257)" d="m0 0 5 1 1 4-1 2h-5l-2-4z" fill="#0407BA"/>
<path transform="translate(333,245)" d="m0 0 4 1 1 5-4 2-3-2 1-5z" fill="#FC0101"/>
<path transform="translate(571,189)" d="m0 0h7l1 3-2 3-6-1-2-3z" fill="#484AAE"/>
<path transform="translate(744,242)" d="m0 0h4l1 6-1 1h-5l-1-5z"/>
<path transform="translate(619,357)" d="m0 0h5v5l-2 2-5-1 1-5z" fill="#0C0000"/>
<path transform="translate(725,273)" d="m0 0v3l-2 2h-8l-3-2v-2h9z" fill="#FC0101"/>
<path transform="translate(236,498)" d="m0 0 9 1 4 5-4-1-5-2h-6v-2z" fill="#FEFE01"/>
<path transform="translate(631,197)" d="m0 0 6 1 1 2-1 2h-5l-4-2z" fill="#FDFEFD"/>
<path transform="translate(255,562)" d="m0 0 4 1 1 3-1 2h-5l-1-4z"/>
<path transform="translate(337,752)" d="m0 0h4v2l5 1 3 5-5-2-7-4z" fill="#0306A6"/>
<path transform="translate(632,683)" d="m0 0 4 1 1 4-5 1-1-5z" fill="#FC0101"/>
<path transform="translate(438,636)" d="m0 0 4 2-2 4h-4l-1-3z" fill="#0407BA"/>
<path transform="translate(845,502)" d="m0 0 4 1 1 5-5-1-1-4z" fill="#0407BA"/>
<path transform="translate(166,175)" d="m0 0 1 3-3 3-5-1-2-4 6 1z" fill="#FC0101"/>
<path transform="translate(573,733)" d="m0 0h11v1l-9 1-6 5-1-4z" fill="#03069F"/>
<path transform="translate(280,636)" d="m0 0 4 1v5l-5-1z"/>
<path transform="translate(392,204)" d="m0 0h5l2 2-1 3-7-2z" fill="#FDFEB2"/>
</svg>
